<?xml version="1.0" encoding="utf-8"?>
<svg viewBox="0 0 250 250" xmlns="http://www.w3.org/2000/svg">
  <defs>
    <linearGradient id="SvgjsLinearGradient1028">
      <stop id="SvgjsStop1029" stop-color="#905e26" offset="0"/>
      <stop id="SvgjsStop1030" stop-color="#f5ec9b" offset="0.5"/>
      <stop id="SvgjsStop1031" stop-color="#905e26" offset="1"/>
    </linearGradient>
  </defs>
  <g id="SvgjsG1020" featurekey="rootContainer" transform="matrix(2.316007, 0, 0, 2.316007, 0.710814, -4.965108)" fill="url(#SvgjsLinearGradient1028)">
    <g xmlns="http://www.w3.org/2000/svg">
      <path d="M19.8 15.3h.5l-.4-.2zm.5.1zm.8-.7c0 .1 0 .1.1.1l.4-.3c-.2-.1-.3-.1-.5.2zm.4-.2zm-4.1 2.3zm-.2.6l.3-.2c.1-.1.1-.2.1-.2h-.2l-.2.4c-.1-.1-.1 0 0 0zm2.2-2.9h-.1l-.2.2h.3zm-2.1 2.4l.6-.5c.1-.1.1-.2.1-.3h-.3l-1.2 1.1-.2.4.7-.6zm-1.1.8z"/>
      <path d="M9.7 25v-.2a1.7 1.7 0 0 1 .7-1.1l.9-.6.5-.6.7-.7.4-.4.4-.3a1.9 1.9 0 0 0 .8-.9l.4-.5a5.9 5.9 0 0 0 1-1.3l.2-.3.3-.2-.2-.3.4-.5c.8-.6 1.4-1.4 2.2-2l.3-.3a1.4 1.4 0 0 1 .5-.6l.8-.4h.4a1.4 1.4 0 0 0 .7-.6V13a3.5 3.5 0 0 1 1.3-1.4l.8-.5.2-.2.4-.4 1-.5h.2l-1.1.4-1.4 1c-.6.5-1.4.6-1.8 1.4h.3c-.7.2-1.4.5-1.7 1.2s-.8.6-1.2.9a.4.4 0 0 0-.3.4c-.8-.1-1.1.5-1.5.9v.8a3.9 3.9 0 0 0-1.6 1.4c-1.6.1-1.6 2.1-3 2.5h-.1a.2.2 0 0 0 0 .2c-.3 0-.5.2-.4.5l-.2.5c-.7.4-.6 1.1-1 1.7-.8.5-1.1 1.5-1.7 2.2l.3.5.2-.2a11.6 11.6 0 0 1 .9-1.3zM53.9 3.3l.6.2h.2a2.2 2.2 0 0 0 1.4.2 4.1 4.1 0 0 1 1.9.1h1.2a1.4 1.4 0 0 1 1.2.3.1.1 0 0 1 0 .1H60a.1.1 0 0 0 0 .1h.7a1.8 1.8 0 0 1 1.3 0c.2 0 .1.1.2.2l.5.2h-.2c-.2-.4-.5-.4-.8-.4a9.7 9.7 0 0 0-4.3-.9h-.8A9.8 9.8 0 0 0 53 3h.2zm7.3 3.1zM50.3 4.7zm10.9 1.7h.2-.2zM19 14.7zm32.1-10zm17.6 2.2a.9.9 0 0 0 1 .2h.6a3.1 3.1 0 0 0-1.8-.7l-.7-.2.5.3zm-3.4-1.3c0 .1.1.2.2.3h.2l.5-.3a4.2 4.2 0 0 0-1.7-.6l.7.4zm7.4 2.7l.8.5c-.2-.3-.4-.5-.8-.5z"/>
      <path d="M99 76.1l.6-1.6.6-1.5c.2-.5.6-1.8.8-2.6a1.7 1.7 0 0 1 .3-.7h.1v-1.1c.5-.1.4-.6.5-.9l.8-4.7a12.7 12.7 0 0 0 0-6.2 1.9 1.9 0 0 0-.5-1.6v-4.3c-.3-.9.3-1.9-.4-2.7L101 45a.4.4 0 0 0 0-.2l-.2-.6a.5.5 0 0 1 0-.4h.1c.3 0 .3-.5.3-.9a3 3 0 0 0-.4-1.1l-.3-.4a1.1 1.1 0 0 1-.2-.7 6.7 6.7 0 0 0-.2-2v-.6c-.2-.7-.4-1.5-.6-2.2l-.2-.5a2.5 2.5 0 0 1-.4-1.1 2.5 2.5 0 0 0-.3-.8l-.6-1a.8.8 0 0 0-.6-.2h-.1V32h-.2v-.8H97V31a.4.4 0 0 0 0-.1v-.2c.1-.2.1-.3-.1-.5a1.8 1.8 0 0 1-.4-.6l-.2-.6a2.9 2.9 0 0 0-.7-1.2 2.2 2.2 0 0 1-.5-.7l-.7-1.6a4.3 4.3 0 0 0-.6-1l-.6-.8a2.4 2.4 0 0 1-.4-.8l-.2-.3a.6.6 0 0 1-.1-.5.5.5 0 0 0-.2-.4l-.4-.3v.2c.1.2 0 .3-.1.3h-.2l.3 1 .3.5.7.9h-.1l-.2-.2-.2-.2a1.3 1.3 0 0 0-1.2-1.1v-.7c-.3-1.2-1.6-1.3-2.2-2.1a1.5 1.5 0 0 0-1.1-.9l-.8-.9a11.3 11.3 0 0 0-3.1-3l-.8-.6-.4-.3c-.7-.7-1-1.8-2.2-1.8l-.8-.5-.9-.7a2.2 2.2 0 0 0-1.8-1.3 5.1 5.1 0 0 0-2.3-1.2l.2.2.5.4 1.3.7a8.5 8.5 0 0 1 2.1 1.6 6.8 6.8 0 0 0 1.5 1.1l.6.5c.1.1.2.2.1.3H81l-.9-.3a5.6 5.6 0 0 1-2-.8l-1.2-.6-1.3-.7h-.2c-.3-.1-.4-.4-.8-.5l-.8-.2-2.5-.5a2.6 2.6 0 0 1-.9-.7 1.7 1.7 0 0 1-.9-.3l-1-.4a18.1 18.1 0 0 1-2.8-.8l-.6-.2-1-.3h-.5l-.2-.3v-.1h-1.6l-.6-.5-.4.2-.4.2h-.2l-.9-.5c-.6.6-1.1-.2-1.6-.1l-1-.3a1.2 1.2 0 0 1-1.2 0h-1.2a.6.6 0 0 1-.5-.6l.3-.2h.6a.7.7 0 0 1 .1.3c0 .2.2.2.5.2h.2l-.4-.6a1.1 1.1 0 0 0-1-.2l-1 .3H53c.3.2.2.3.2.5h-1.6l-.4-.2-.8-.4h-.1l-.7-.2h-2.3l.4-.2.8-.2h.3l1.7-.3 1.1-.2.6-.2h-1.1a8.4 8.4 0 0 0-3.4 0h-1.3L43 3.6c-1.4.1-2.8 0-3.9 1.2-2.5-.4-4.7.7-6.9 1.8l-2.2.9a6.7 6.7 0 0 0-3.7 1.8h.3l.5-.3.8-.5 1.3-.6 1-.2a6 6 0 0 1 2-.9l.9-.3h.2c.1.2.5 0 .7 0h.2c.1 0 .1.1 0 .1l-.6.4 1-.3.8-.2-1.3.7-1.3.4a1 1 0 0 0-.6.5l-.3.5h.3l.4-.2a1.4 1.4 0 0 1 .9-.6l1.5-.5h.5a.1.1 0 0 1 .1.2c-.2.2-.6.3-.8.5h.2l-3.2.9-3.8 1.6a5.2 5.2 0 0 1-2.3 1.2 6.6 6.6 0 0 1-1.7 1.1l-.8.2a1.5 1.5 0 0 1-1.3.9l-.3.5a3.7 3.7 0 0 1-1.2 1.1h-.1v-.1l-.2.2-.2.2-1 .2h-.5l-.4.5c-.1.1-.1.2 0 .2h.1c-.6.6-1 1.4-1.8 1.7L15 19.9c-.6 1.2-1.8 1.6-2.6 2.6s-1.4 3.9-3.9 4.3l-.2-.3-.2.5a2.7 2.7 0 0 1-.4.8 16.9 16.9 0 0 0-1.2 2.1.8.8 0 0 0-.1.5 1.4 1.4 0 0 1-.2.8l-.5 1.1h.2c.3 0 .3.3.4.6l.8-1.1a2.2 2.2 0 0 1 .6-.7 2 2 0 0 0 .9-.9l.3-.3.4-.4.6-1.1h.2c.1.1.1.1.2 0l.2-.4h.5v.8l.5-.5a.5.5 0 0 0 0-.5.4.4 0 0 1 .1-.3 1.5 1.5 0 0 0 .3-.5 1.3 1.3 0 0 1 .8-.9l.3-.2.3-.3a2.4 2.4 0 0 0 .8-1l-.2-.3c0-.1.1-.3.2-.4h.5l.6-.8.6-.3h.2a48.8 48.8 0 0 0-5.5 7.2h-.1.1a48.4 48.4 0 0 0-5.3 11.2h-.5l-.5-.4c-.2-.2-.1-.7-.4-.9h.1c.3-.5-.1-1.2.3-1.7s.1-1.4-.9-1.2-1.5.5-1.3 1.5-1 1.8-1.1 2.9-.5.5-.3.9v3.9c.1.8-.5 1.8.8 2.1l1.3.9c.1.5-.5 1.6.9 1.3a49.2 49.2 0 0 0-.3 5c0 1.1.1 2.2.1 3.3v-.4c-.1-.4-.1-.8-.2-1.3l-.3.3v-.2h-.5c0 .5-.1.8-.4.9a.9.9 0 0 0-.1.5c0 .1.1.3.2.2s.4.2.7.4-.2.3-.4.2-.2.1-.2.3v.3l.5 1.5c0 .3-.1.6-.1.9a1.7 1.7 0 0 0 .2.8h-.3v-.3l-.7-.2v-.6a1.5 1.5 0 0 0 0-.5 14.6 14.6 0 0 1-.3-1.8 16.6 16.6 0 0 1-.2-3.5.9.9 0 0 1 .1-.5v.2a2.9 2.9 0 0 1 .1.5.8.8 0 0 0 .1.4c.1.2.2.4.4.4s.1-.1.1-.2a2.1 2.1 0 0 0-.1-.5 4.2 4.2 0 0 1-.3-1.3 1.5 1.5 0 0 0-.3-.7 1.6 1.6 0 0 1-.2-.9v-.8c0-.3.1-.6.1-.9a.5.5 0 0 0-.1-.4h-.1c-.8.4-.7.2-1 1.6V55c0 .7-.1 1.4 0 2.1a10.8 10.8 0 0 0 .2 2.3 1.8 1.8 0 0 1 0 .5 3.1 3.1 0 0 0 .1.9 5.9 5.9 0 0 1 .1 1.3 3.9 3.9 0 0 0 .2 1.7 1.2 1.2 0 0 1 0 .4 2.1 2.1 0 0 0 .1.8 4.9 4.9 0 0 1 .2.9 14 14 0 0 0 .5 2.2 5 5 0 0 1 .2 1 1.7 1.7 0 0 0 .3.7 2.9 2.9 0 0 1 .5 1.2 8.5 8.5 0 0 0 .3 1l.4 1.4a5.4 5.4 0 0 0 .6 1.5 8.5 8.5 0 0 1 .8 2.1l.2.5a2.1 2.1 0 0 1 .5 1 2.1 2.1 0 0 0 .4.8 1 1 0 0 1 .2.5c.1.3.2.4.4.3h.1v.9l.5 1 .5 1 1.1 1.2.4.4c.3.3.7.5.9 1l.4.3a.7.7 0 0 1 .3.5l.2.7a3.3 3.3 0 0 0 .6.9l.4.2h.3a.2.2 0 0 1 .1.3 2.5 2.5 0 0 0 0 .5.9.9 0 0 0 .4.5h.2c.4-.1.8.2 1.2.7h.1c0-.1.1-.1 0-.2v-.2c0-.1.1-.2.2-.1a.7.7 0 0 1 .3.6v.2a4.3 4.3 0 0 0 .4 1.2c.5.3.5.3.5.1s0-.2.2-.2h.4l.2.3.8.5c.7.8 1.8.7 2.6 1.2l1.7 1.7h.2a2.9 2.9 0 0 0 1.6 1.6 1.3 1.3 0 0 0 1 .6c0 .5.6.6 1.1.7a1.2 1.2 0 0 0 .8.4h.2a1.7 1.7 0 0 0 1.5.5l.9.8 2.4.9v.2c.5 1.1 1.7.7 2.5 1l1.1.4h.4c1.2.3 2.4.9 3.7.5a.7.7 0 0 0 0 .4c1.1.7 2.4 0 3.6.4a2.9 2.9 0 0 0 1.7.1h.1l.8.2h.3l.9.2h.3a.5.5 0 0 1 .5 0 7.9 7.9 0 0 0 1.5.4h.6a.7.7 0 0 1 .7 0h3.9a5 5 0 0 0 1.6-.1h1l.5-.2H60l.6-.2.5-.3h2.2v.6H62l-1.2.2c-.4.1-.7 0-1 .1a2.4 2.4 0 0 1-1 .2l-1.3.3h-.4a3.1 3.1 0 0 0-1.5.1h-1.8a1.1 1.1 0 0 1-.9 0h-4.5a1.3 1.3 0 0 0-1.1.3H47l-.3-.2v-.3h-1.2a4.1 4.1 0 0 0-1.3-.3h-2.5l-.7-.2-.5-.2-2.1-.4h-.5l-.5-.2-2.1-.7-1.4-.4h-2.2c-.1 0-.1.1-.1.2h.2c1.3.5 2.6.9 3.9 1.5h.3l.9.2 1.4.4h1.3l.6.2.7.3 1.7.3 1.1.2 1.1.2h.8l.8.2h3.1l1 .2h2.3l1-.2H56c.4 0 .6-.1.7-.3h1a1 1 0 0 0 .8-.3c-.1.1 0 .1.1.2h.4v-.2c0-.1 0-.1.2-.2s.6-.1.7.1h.4l.3-.2c.2 0 .2 0 .2.1h.7l.5-.2.8-.4c.1.3.4.4 1.3.2l1.3-.4h1.2c.9-.1 2 0 2.7-.7h.2l.4-.3 1.1-.3a6.1 6.1 0 0 0 2-.8l.4-.2h.1l.9-.6.4-.2.5-.2h.4c.4-.1.4-.1.5-.4s0-.1-.2-.1h-.1l.4-.5h.2c.3-.1.5-.2.7-.1h.2a1.3 1.3 0 0 0 .9-.9c.3-.4 1.1-.2 1.3-.8l4.3-3.1c1.1-.1 1.4-1.1 2.2-1.7s2.3-1.1 3-2.2l.9-.4h.1a1 1 0 0 0 1.2-.7v.4c.8-.4 1.8.3 2.6-.5s0-2.7 1-3.8l.7-.5a12.1 12.1 0 0 0 1.5-4.2l.2-.2c0-.3 0-.7.4-.9a.9.9 0 0 0 .2-1.2h-.2a.3.3 0 0 0 0-.3c.7 0 .8-.7 1.2-1V77a.5.5 0 0 1 0-.2 3.8 3.8 0 0 0 .1-.7zM5.9 32.2z"/>
      <path d="M26.4 9.3l-.3.2-.4.3.5-.2zm6.1-2h.1l.3-.2h-.4zm-2.6 1l-.1.1h.1v-.1zm-1.5 1.4zm1.3-.2zm-6.3 3.1zM9.2 26.2l-.4.4H9a.4.4 0 0 0 .2-.4zm3-3.5a2.1 2.1 0 0 0 .3-.6 1.5 1.5 0 0 0-.5.5c-.1.1-.1.2 0 .2zM11 24.2V24c-.2 0-.5.3-.8.3v.2c.3.3.4.2.8-.3zm3 66.2zM73.9 9.2h.1l-.5-.3zm-2.5-1.4c.5-.1.8.4 1.2.5h.1l-.3-.2-1-.5-1.1-.5.3.2zM52.8 3.1zm11.7 2h-.1l-1.2-.2h.5zm2 .7l1.3.4a3.3 3.3 0 0 0-1.3-.4zm-9 0a1 1 0 0 0 .2-.5h-.5l-.3.3.4.3zm9 1.6zM49.9 4.2zm2.9.7zM48.5 4zm13.8 2.1a.5.5 0 0 0 0 .1zm44.8 52.3h-.3V58h.3c.1 0 .2-.3.1-.4s-.1-.7-.3-.8a.3.3 0 0 1-.2-.3l.2-.4a.4.4 0 0 0 0-.2h-.2l-.2-.3c-.1.3-.2.6-.4.7a.5.5 0 0 0 0 .2c0 .1 0 .2-.1.2h-.1a1.1 1.1 0 0 1-.1.3 2.3 2.3 0 0 0-.4.9.4.4 0 0 0 .1.4h.1a1.7 1.7 0 0 0-.1.8v.4a1.8 1.8 0 0 1-.1.5h-.1l-.4.7v.6a1.5 1.5 0 0 1-.3 1.1h-.2l-.2-.2a.9.9 0 0 1-.1-.8 6.5 6.5 0 0 0 .1-1.7c0-.1-.1-.2-.1-.2a.5.5 0 0 0-.1.3v.6c0 .2-.1.6-.3.7s-.1.2-.1.3l-.2.6.3.5c-.2.2-.4.1-.5-.1v1h.3v.4a4.2 4.2 0 0 0-.3 1.4 3.3 3.3 0 0 0 0 .4 4 4 0 0 1-.2 1.3 2 2 0 0 0 0 .6l-.3.7a3.2 3.2 0 0 1-.3.7l-.3.6-.9 2.7c.3.9-.4 1.5-.8 2.1a2.7 2.7 0 0 1-.8 2.3v.4c0 .1.1.2.3.1l.4-.3.2-.4h.2c.1.1.2.1.4-.1h.2a.5.5 0 0 1 .1.6 2.9 2.9 0 0 0-.1.8c0 .1 0 .2.1.2h.2c.1.1.2 0 .3-.3l.2-.5h.3c.4-.1.4-.1.6-.6l.5-.9.3-.6.4-1a1.6 1.6 0 0 1 .3-1 .6.6 0 0 0 .1-.6c0-.2 0-.3.2-.6l.3-.4.5-1a4.7 4.7 0 0 1 .2-.9 3 3 0 0 0 .3-1.3 3.8 3.8 0 0 1 .3-.9v-.5c-.1-.2-.1-.2 0-.6s.1-.2.2-.2a.4.4 0 0 1 .1.3l.2-.5a2.3 2.3 0 0 0 .2-.9v-.3c0-.1 0-.3-.1-.3v.4c-.2 0-.3.2-.5.3a6.4 6.4 0 0 0 .1-.8l.4-.2a.7.7 0 0 0 .2-.6 1.4 1.4 0 0 1 0-.3 4.8 4.8 0 0 0 .2-1.4v-.2l.3-1h.1a.3.3 0 0 0 .1-.3h-.1a.9.9 0 0 1 .2-.8 1.5 1.5 0 0 0-.9-1zm-1.2 7.8zm-.2-9.9zm0 0zM9.1 30.8a.3.3 0 0 0 0-.2l-.2-.2-.2.2-.3.6c0 .3-.3.6-.3.9v.2h.1zm96.3 24.8h.1a1.7 1.7 0 0 0 .2-1.2.5.5 0 0 1 .2-.5h.1v-.2l-.2-.2h-.1c-.1.1-.2.3-.3.3s-.1.1-.1.3v.3a2.2 2.2 0 0 0 .1 1.2zM13.2 90.1c-.1 0 0 .2 0 .3l.8.8h.1c-.2-.3-.3-.6-.2-.7a.9.9 0 0 1-.5-.2zm.8.3zm92.3-35.7h.1a2 2 0 0 0 0-.6c-.3.1-.3.1-.3.6s.1.1.2 0z"/>
      <path d="M106.7 62a.6.6 0 0 0 .1-.5c0-.1-.1-.2-.1-.1h-.2v.2c0 .4.1.5.2.4zm.1-8.2h-.1v.6a1 1 0 0 0 .1-.6zM17.1 92.6h-.2v.2l.2.2h.2v-.2zm86.6-33.3c0-.1 0-.1-.1-.1zM9.9 86.5l.5.5-.4-.6z"/>
      <circle cx="10.5" cy="87.1" transform="rotate(-24.8 10.4 87.159)"/>
      <path d="M9.7 30.1h-.1v.2-.2h.1zm83.2-6.6l-.2-.3h-.1zm-14.7 77.1zM5.9 32.2zm-.1.2a.3.3 0 0 0 .1-.2v.2zm1.9-4.9zM61.5 2.4zm42.8 58.2v.1-.1zM16.4 92.5h-.1c.1.1.2 0 .1-.1zm.2.7h.1l-.1-.1v.1zm73.9-71.3zm15.2 34.4zM14.6 91.7zm92.1-37zm-.8 11.4zM34.6 0z"/>
    </g>
  </g>
  <g id="SvgjsG1021" featurekey="symbolFeature-0" transform="matrix(0.854701, 0, 0, 0.854701, 83.566008, 48.762069)" fill="#000000">
    <path xmlns="http://www.w3.org/2000/svg" d="M77.004,31.132c4.438,27.562-5.994,39.332-17.572,44.206c-2.512-0.095-4.41-0.905-5.635-2.417  c-0.283-0.348-0.521-0.723-0.725-1.112c8.734-4.211,17.799-10.688,17.963-19.473c0.248-13.075-4.621,5.675-18.678,17.557  c-0.678-2.704-0.203-5.429-0.197-5.465l0.029-0.152l-0.008-0.153c-1.025-10.399,1-10.399-8.621-19.261c0,0,4.811-5.064,15.951-5.064  C70.653,39.797,72.973,35.381,77.004,31.132z"/>
    <path xmlns="http://www.w3.org/2000/svg" d="M23.665,58.226C19.48,40.757,33.853,71.085,58.475,77.922l0.158-1.28c-10.921-0.321-8.672-12.528-8.672-12.528  c-0.964-22.487-25.699-24.416-25.699-24.416c-13.814-1.927-19.154-8.674-19.154-8.674C2.217,93.99,58.313,79.212,58.313,79.212  l0.117-0.93C46.368,76.52,26.872,71.62,23.665,58.226z"/>
    <path xmlns="http://www.w3.org/2000/svg" d="M90.975,5c-8.15,2.817-16.076,12.044-21.242,19.204c0,0.001,0,0.001,0,0.002c-6.564-1.342-16.857-2.208-28.436-2.208  c-19.824,0-35.895,2.534-35.895,5.659c0,1.299,2.779,2.494,7.441,3.449c2.016-1.704,14.068-3.013,28.641-3.013  c9.598,0,18.096,0.568,23.36,1.443l-2.566,1.221c-4.98-0.689-12.289-1.125-20.437-1.125c-12.426,0-22.897,1.014-26.144,2.397  c7.625,1.549,28.333,4.741,51.256-0.337c1.852-0.226,3.242-0.58,4.205-0.897c0.121-0.029,0.248-0.057,0.365-0.085  c0.123-0.03,0.248-0.061,0.367-0.091c0.145-0.037,0.279-0.074,0.418-0.111c0.125-0.034,0.252-0.068,0.373-0.103  c0.131-0.037,0.256-0.074,0.381-0.111c0.125-0.037,0.246-0.074,0.363-0.112c0.115-0.036,0.229-0.071,0.338-0.108  c0.133-0.045,0.26-0.089,0.385-0.134c0.086-0.03,0.176-0.062,0.26-0.092c0.191-0.073,0.371-0.145,0.543-0.218  c0.074-0.032,0.145-0.064,0.215-0.095c0.105-0.048,0.211-0.096,0.311-0.146c0.068-0.034,0.135-0.068,0.199-0.102  c0.094-0.05,0.186-0.1,0.27-0.151c0.055-0.031,0.111-0.063,0.162-0.095c0.105-0.066,0.203-0.133,0.293-0.2  c0.023-0.017,0.047-0.031,0.066-0.048c0.107-0.082,0.199-0.166,0.283-0.249c0.027-0.027,0.051-0.055,0.076-0.083  c0.053-0.059,0.102-0.119,0.143-0.178c0.021-0.03,0.041-0.062,0.059-0.093c0.037-0.061,0.064-0.121,0.088-0.182  c0.012-0.028,0.025-0.055,0.033-0.084c0.025-0.087,0.043-0.177,0.043-0.266c0-0.087-0.018-0.175-0.043-0.262  c-0.008-0.027-0.018-0.053-0.029-0.078c-0.023-0.063-0.053-0.125-0.09-0.188c-0.016-0.028-0.031-0.055-0.049-0.082  c-0.053-0.076-0.113-0.153-0.186-0.229c-0.008-0.009-0.014-0.018-0.021-0.026c-0.08-0.083-0.176-0.165-0.279-0.246  c-0.035-0.028-0.072-0.054-0.111-0.082c-0.076-0.057-0.16-0.113-0.248-0.17c-0.045-0.028-0.088-0.056-0.137-0.084  c-0.109-0.065-0.227-0.13-0.35-0.195c-0.031-0.016-0.057-0.031-0.088-0.047c0-0.001-0.002-0.001-0.004-0.001  c5.305-4.718,11.754-9.786,11.754-9.786C102.124,4.691,90.975,5,90.975,5z"/>
  </g>
  <g id="SvgjsG1022" featurekey="nameFeature-0" transform="matrix(0.701459, 0, 0, 0.701459, 24.43659, 128.046109)" fill="#000000">
    <path d="M2.52 40 c-0.28 0 -0.52 -0.24 -0.52 -0.52 l0 -23.96 c0 -0.28 0.24 -0.52 0.52 -0.52 l16.52 0 c0.16 0 0.28 0.04 0.36 0.16 c0.12 0.08 0.16 0.2 0.16 0.36 l-0.04 4.48 c0 0.28 -0.24 0.52 -0.52 0.52 l-10.8 0 l0 4.84 l6.8 0 c0.28 0 0.52 0.24 0.52 0.52 l0 4.52 c0 0.28 -0.24 0.52 -0.52 0.52 l-6.8 0 l0 8.56 c0 0.28 -0.2 0.52 -0.48 0.52 l-5.2 0 z M23.28 40 c-0.32 0 -0.52 -0.24 -0.52 -0.52 l0 -23.96 c0 -0.28 0.2 -0.52 0.52 -0.52 l9.76 0 c3.04 0 5.44 0.76 7.12 2.32 c2.48 2.24 3.32 6.48 2.12 9.6 c-0.44 1.12 -1.2 2.16 -2.16 2.92 c-0.56 0.44 -1.16 0.76 -1.76 1.08 c1.72 2.72 4.32 8.24 4.32 8.24 c0.04 0.08 0.12 0.2 0.12 0.32 c0 0.28 -0.24 0.52 -0.52 0.52 l-5.92 0 c-0.16 0 -0.36 -0.12 -0.44 -0.28 l-3.48 -7.64 c-1.24 0.08 -2.2 0.04 -3.48 0.04 l0 7.36 c0 0.28 -0.24 0.52 -0.52 0.52 l-5.16 0 z M28.96 26.560000000000002 c0 0 5.04 0.56 6.8 -0.6 c0.68 -0.44 1.08 -1.52 1.08 -2.32 c-0.04 -0.88 -0.48 -1.8 -1.2 -2.36 c-0.76 -0.64 -2.64 -0.84 -3.6 -0.84 l-3.08 0.08 l0 6.04 z M46.84 40 l0 -23.96 c0 -1 0.2 -1.2 0.52 -1.2 l17.52 0 c0.28 0 0.52 0.2 0.52 0.48 l0 4.52 c0 0.28 -0.24 0.52 -0.52 0.52 l-11.84 0 l0 4.16 l7.48 0 c0.28 0 0.52 0.24 0.52 0.52 l0 4.48 c0 0.28 -0.24 0.52 -0.52 0.52 l-7.48 0 l0 4.28 l11.8 0 c0.28 0 0.52 0.24 0.52 0.52 l0 4.48 c0 0.28 -0.24 0.52 -0.52 0.52 l-17.48 0 c-0.32 0 -0.52 -0.24 -0.52 0.16 z M69.92 40 c-0.28 0 -0.52 -0.24 -0.52 -0.52 l0 -3.64 c0 -0.12 0.04 -0.24 0.12 -0.36 l10.52 -14.92 l-9.68 0 c-0.28 0 -0.52 -0.24 -0.52 -0.52 l0 -4.52 c0 -0.28 0.24 -0.52 0.52 -0.52 l17.36 0 c0.28 0 0.52 0.24 0.52 0.52 l0 3.64 c0 0.08 -0.04 0.2 -0.12 0.32 l-10.44 14.96 l10.24 0 c0.16 0 0.28 0.08 0.36 0.16 c0.12 0.08 0.16 0.24 0.16 0.36 l-0.04 4.52 c0 0.28 -0.2 0.52 -0.52 0.52 l-17.96 0 z M105.03999999999999 40 c-2.36 0 -4.52 -0.56 -6.44 -1.68 c-1.92 -1.16 -3.44 -2.72 -4.52 -4.68 s-1.64 -4.16 -1.64 -6.6 c0 -2.36 0.56 -4.56 1.68 -6.52 c1.12 -1.92 2.68 -3.48 4.6 -4.6 c1.96 -1.12 4.16 -1.68 6.48 -1.68 c1.76 0 3.48 0.4 5.16 1.12 c1.68 0.76 3.12 1.76 4.32 3.04 c0.16 0.2 0.16 0.48 0 0.68 l-3.8 3.12 c-0.12 0.12 -0.24 0.2 -0.4 0.2 s-0.32 -0.08 -0.4 -0.2 c-2.04 -2.48 -5.32 -3 -8.08 -1.28 c-2.4 1.48 -3.28 4.2 -3.16 6.92 c0.12 2.76 2.12 5.12 4.76 5.92 c2.4 0.72 4.76 0.16 6.48 -1.68 c0.12 -0.08 0.24 -0.16 0.4 -0.12 c0.16 0 0.28 0.04 0.36 0.16 l3.88 2.72 c0.16 0.2 0.16 0.48 0 0.68 c-1.28 1.36 -2.8 2.48 -4.48 3.28 c-1.72 0.8 -3.48 1.2 -5.2 1.2 z M131.72 40 c-2.4 0 -4.6 -0.56 -6.52 -1.68 c-1.96 -1.12 -3.52 -2.72 -4.68 -4.64 c-1.12 -1.96 -1.68 -4.2 -1.68 -6.6 c0 -2.36 0.56 -4.56 1.68 -6.52 c1.16 -1.96 2.68 -3.52 4.64 -4.64 s4.16 -1.68 6.56 -1.68 c2.36 0 4.56 0.56 6.52 1.68 s3.52 2.68 4.64 4.64 c1.16 1.96 1.72 4.16 1.72 6.52 c0 2.4 -0.56 4.6 -1.72 6.56 c-1.12 1.96 -2.68 3.52 -4.64 4.68 c-1.96 1.12 -4.16 1.68 -6.52 1.68 z M131.8 34.24 c1.16 0 2.24 -0.32 3.2 -0.92 c1 -0.64 1.8 -1.48 2.36 -2.6 c0.6 -1.08 0.88 -2.32 0.88 -3.64 c0 -1.28 -0.28 -2.52 -0.88 -3.6 c-0.56 -1.08 -1.36 -1.92 -2.36 -2.56 c-0.96 -0.6 -2.04 -0.92 -3.2 -0.92 c-1.2 0 -2.28 0.32 -3.28 0.92 c-1.04 0.64 -1.84 1.48 -2.44 2.56 c-0.6 1.12 -0.88 2.32 -0.88 3.6 c0 1.32 0.28 2.56 0.88 3.64 c0.64 1.08 1.44 1.96 2.44 2.56 c1 0.64 2.08 0.96 3.28 0.96 z M170.08 40.24 c-1.92 0 -3.84 -0.36 -5.68 -1.08 c-1.84 -0.68 -3.48 -1.68 -4.84 -2.88 c-0.16 -0.16 -0.2 -0.4 -0.12 -0.6 l1.4 -4.76 c0.08 -0.16 0.2 -0.28 0.36 -0.28 c0.16 -0.04 0.32 0 0.44 0.12 c2.12 2 4.52 3.8 7.52 3.96 c0.8 0.04 1.68 0.08 2.44 -0.16 c2.36 -0.76 1.36 -3.16 -0.4 -3.88 c-0.6 -0.24 -1.44 -0.52 -2.52 -0.84 c-1.6 -0.44 -2.92 -0.92 -3.92 -1.4 c-1.08 -0.48 -2 -1.24 -2.8 -2.24 c-0.76 -1.04 -1.16 -2.4 -1.16 -4.04 c0 -1.56 0.4 -2.92 1.2 -4.08 s1.92 -2.08 3.32 -2.68 s3.04 -0.92 4.88 -0.92 c1.64 0 3.24 0.24 4.84 0.76 c1.56 0.48 2.96 1.16 4.2 1.96 c0.2 0.16 0.28 0.4 0.16 0.64 l-1.32 4.48 c-0.04 0.16 -0.16 0.24 -0.32 0.28 c-0.12 0.04 -0.28 0.04 -0.4 -0.04 c-1.8 -1.12 -3.6 -2.48 -5.72 -2.76 c-1.4 -0.2 -3.52 -0.12 -4 1.56 c-0.6 2.16 2.56 2.72 4 3.16 c1.6 0.48 2.92 0.96 3.96 1.44 c1.08 0.52 2.04 1.32 2.8 2.32 c0.8 1.04 1.2 2.44 1.2 4.12 c0 1.64 -0.44 3.04 -1.28 4.24 c-0.8 1.2 -1.96 2.08 -3.4 2.72 c-1.44 0.56 -3.04 0.88 -4.84 0.88 z M184.07999999999998 40 c-0.28 0 -0.48 -0.24 -0.48 -0.52 l0 -23.96 c0 -0.28 0.2 -0.52 0.48 -0.52 l9.8 0 c3.04 0 5.44 0.76 7.12 2.32 c2.48 2.24 3.32 6.48 2.12 9.6 c-0.44 1.12 -1.2 2.16 -2.16 2.92 c-3.24 2.52 -7.28 2.28 -11.16 2.28 l0 7.36 c0 0.28 -0.24 0.52 -0.52 0.52 l-5.2 0 z M189.79999999999998 26.560000000000002 c0 0 5.04 0.56 6.8 -0.6 c0.68 -0.44 1.08 -1.52 1.08 -2.32 c-0.04 -0.88 -0.48 -1.8 -1.2 -2.36 c-0.76 -0.64 -2.64 -0.84 -3.6 -0.84 l-3.08 0.08 l0 6.04 z M208.24 40 c-0.28 0 -0.52 -0.24 -0.52 -0.52 l0 -23.96 c0 -0.28 0.24 -0.52 0.52 -0.52 l5.2 0 c0.28 0 0.52 0.24 0.52 0.52 l0 23.96 c0 0.28 -0.24 0.52 -0.52 0.52 l-5.2 0 z M230.56 40 c-2.36 0 -4.52 -0.56 -6.44 -1.68 c-1.92 -1.16 -3.44 -2.72 -4.52 -4.68 s-1.64 -4.16 -1.64 -6.6 c0 -2.36 0.56 -4.56 1.68 -6.52 c1.12 -1.92 2.68 -3.48 4.6 -4.6 c1.96 -1.12 4.16 -1.68 6.48 -1.68 c1.76 0 3.48 0.4 5.16 1.12 c1.68 0.76 3.12 1.76 4.32 3.04 c0.16 0.2 0.16 0.48 0 0.68 l-3.8 3.12 c-0.12 0.12 -0.24 0.2 -0.4 0.2 s-0.32 -0.08 -0.4 -0.2 c-2.04 -2.48 -5.32 -3 -8.08 -1.28 c-2.4 1.48 -3.28 4.2 -3.16 6.92 c0.12 2.76 2.12 5.12 4.76 5.92 c2.4 0.72 4.76 0.16 6.48 -1.68 c0.12 -0.08 0.24 -0.16 0.4 -0.12 c0.16 0 0.28 0.04 0.36 0.16 l3.88 2.72 c0.16 0.2 0.16 0.48 0 0.68 c-1.28 1.36 -2.8 2.48 -4.48 3.28 c-1.72 0.8 -3.48 1.2 -5.2 1.2 z M244.36 40 l0 -23.96 c0 -1 0.2 -1.2 0.52 -1.2 l17.52 0 c0.28 0 0.52 0.2 0.52 0.48 l0 4.52 c0 0.28 -0.24 0.52 -0.52 0.52 l-11.84 0 l0 4.16 l7.48 0 c0.28 0 0.52 0.24 0.52 0.52 l0 4.48 c0 0.28 -0.24 0.52 -0.52 0.52 l-7.48 0 l0 4.28 l11.8 0 c0.28 0 0.52 0.24 0.52 0.52 l0 4.48 c0 0.28 -0.24 0.52 -0.52 0.52 l-17.48 0 c-0.32 0 -0.52 -0.24 -0.52 0.16 z M277.6 40.24 c-1.92 0 -3.84 -0.36 -5.68 -1.08 c-1.84 -0.68 -3.48 -1.68 -4.84 -2.88 c-0.16 -0.16 -0.2 -0.4 -0.12 -0.6 l1.4 -4.76 c0.08 -0.16 0.2 -0.28 0.36 -0.28 c0.16 -0.04 0.32 0 0.44 0.12 c2.12 2 4.52 3.8 7.52 3.96 c0.8 0.04 1.68 0.08 2.44 -0.16 c2.36 -0.76 1.36 -3.16 -0.4 -3.88 c-0.6 -0.24 -1.44 -0.52 -2.52 -0.84 c-1.6 -0.44 -2.92 -0.92 -3.92 -1.4 c-1.08 -0.48 -2 -1.24 -2.8 -2.24 c-0.76 -1.04 -1.16 -2.4 -1.16 -4.04 c0 -1.56 0.4 -2.92 1.2 -4.08 s1.92 -2.08 3.32 -2.68 s3.04 -0.92 4.88 -0.92 c1.64 0 3.24 0.24 4.84 0.76 c1.56 0.48 2.96 1.16 4.2 1.96 c0.2 0.16 0.28 0.4 0.16 0.64 l-1.32 4.48 c-0.04 0.16 -0.16 0.24 -0.32 0.28 c-0.12 0.04 -0.28 0.04 -0.4 -0.04 c-1.8 -1.12 -3.6 -2.48 -5.72 -2.76 c-1.4 -0.2 -3.52 -0.12 -4 1.56 c-0.6 2.16 2.56 2.72 4 3.16 c1.6 0.48 2.92 0.96 3.96 1.44 c1.08 0.52 2.04 1.32 2.8 2.32 c0.8 1.04 1.2 2.44 1.2 4.12 c0 1.64 -0.44 3.04 -1.28 4.24 c-0.8 1.2 -1.96 2.08 -3.4 2.72 c-1.44 0.56 -3.04 0.88 -4.84 0.88 z"/>
  </g>
  <g id="SvgjsG1023" featurekey="sloganFeature-0" transform="matrix(0.513959, 0, 0, 0.513959, 50.017138, 164.259503)" fill="#000000">
    <path d="M1.9 20 c-0.18 0 -0.3 -0.12 -0.3 -0.3 l0 -9.2 c0 -0.18 0.12 -0.3 0.3 -0.3 l1.33 0 c0.18 0 0.29 0.12 0.3 0.3 l0.05 0.8 l0.15 0 c0.38 -0.87 1.17 -1.32 2.18 -1.32 c0.96 0 1.68 0.41 2.06 1.32 l0.12 0 c0.43 -0.88 1.24 -1.32 2.23 -1.32 c1.59 0 2.55 0.91 2.55 3.48 l0 6.24 c0 0.18 -0.12 0.3 -0.3 0.3 l-1.41 0 c-0.18 0 -0.3 -0.12 -0.3 -0.3 l0 -6.24 c0 -1.22 -0.41 -1.62 -1.18 -1.62 c-0.96 0 -1.37 0.72 -1.46 1.32 l0 6.54 c0 0.18 -0.12 0.3 -0.3 0.3 l-1.37 0 c-0.18 0 -0.3 -0.12 -0.3 -0.3 l0 -6.24 c0 -1.22 -0.41 -1.62 -1.2 -1.62 c-0.93 0 -1.35 0.72 -1.44 1.32 l0 6.54 c0 0.18 -0.12 0.3 -0.3 0.3 l-1.41 0 z M35.8035 18.21 c0.25 0.06 0.36 0.14 0.36 0.35 l0 1.19 c0 0.23 -0.22 0.32 -0.57 0.33 c-1.45 0.03 -2.13 -0.5 -2.13 -1.64 l-0.09 0 c-1.02 1.16 -2.74 1.8 -4.15 1.8 c-2.19 0 -3.33 -1.09 -3.33 -2.79 c0 -1.77 1.13 -2.67 3.36 -3 l2.33 -0.36 c0.83 -0.13 1.27 -0.24 1.39 -0.47 c-0.05 -1.36 -0.83 -1.8 -2.12 -1.8 c-1.27 0 -2.19 0.34 -2.34 1.35 c-0.02 0.14 -0.11 0.22 -0.29 0.22 l-1.49 0 c-0.18 0 -0.31 -0.1 -0.29 -0.3 c0.24 -2.33 1.98 -3.11 4.43 -3.11 c2.84 0 4.2 1.33 4.2 3.74 l0 3.67 c0 0.44 0.23 0.72 0.73 0.82 z M29.6335 18.39 c1.11 0 2.28 -0.25 3.34 -1.31 l0 -2.01 c-0.11 0.23 -0.5 0.34 -1.25 0.46 l-2.1 0.33 c-1.18 0.19 -1.57 0.66 -1.57 1.32 c0 0.73 0.48 1.21 1.58 1.21 z M58.347 19.64 c0.16 0.2 0.06 0.36 -0.18 0.36 l-1.79 0 c-0.16 0 -0.25 -0.04 -0.36 -0.18 l-3.26 -3.96 l-1.61 1.71 l0 2.13 c0 0.18 -0.12 0.3 -0.3 0.3 l-1.56 0 c-0.18 0 -0.3 -0.12 -0.3 -0.3 l0 -14 c0 -0.18 0.12 -0.3 0.3 -0.3 l1.56 0 c0.18 0 0.3 0.12 0.3 0.3 l0 9.19 l4.2 -4.53 c0.11 -0.12 0.23 -0.16 0.37 -0.16 l1.9 0 c0.26 0 0.35 0.17 0.16 0.36 l-3.67 3.88 z M75.6505 9.98 c2.96 0 4.74 2.27 4.74 4.89 c0 0.74 -0.09 1.11 -0.65 1.11 l-6.99 0 c0.23 1.52 1.5 2.5 3.31 2.5 c1.05 0 1.78 -0.32 2.45 -0.83 c0.16 -0.12 0.28 -0.15 0.43 0 l0.66 0.66 c0.15 0.15 0.16 0.29 0 0.45 c-0.95 0.95 -2.19 1.5 -3.76 1.5 c-3.12 0 -5.19 -2.26 -5.19 -5.14 s2.07 -5.14 5 -5.14 z M75.6605 11.83 c-1.53 0 -2.67 1 -2.89 2.59 l5.72 0 c-0.16 -1.57 -1.27 -2.59 -2.83 -2.59 z M97.54399999999998 14.3 c2.11 0.27 4.56 0.53 4.56 2.94 c0 1.79 -1.48 3.02 -4.51 3.02 c-2.62 0 -4.39 -0.77 -4.62 -3.1 c-0.02 -0.2 0.11 -0.3 0.29 -0.3 l1.49 0 c0.18 0 0.27 0.08 0.29 0.22 c0.15 1.01 1.09 1.38 2.51 1.38 c1.54 0 2.43 -0.4 2.43 -1.26 c0 -0.91 -1.04 -1.13 -2.44 -1.3 c-2.08 -0.27 -4.38 -0.55 -4.38 -2.92 c0 -1.77 1.38 -3 4.23 -3 c2.48 0 4.27 0.76 4.5 3.09 c0.02 0.2 -0.11 0.3 -0.29 0.3 l-1.49 0 c-0.18 0 -0.27 -0.08 -0.29 -0.22 c-0.15 -1.01 -1.11 -1.38 -2.4 -1.38 c-1.33 0 -2.15 0.38 -2.15 1.25 s0.88 1.1 2.27 1.28 z M142.49099999999999 18.35 c0.11 0.13 0.13 0.28 0.02 0.41 c-0.42 0.52 -1.51 1.4 -3.3 1.4 c-2.05 0 -3.98 -0.76 -3.98 -3.97 l0 -4.18 l-2.48 0 c-0.18 0 -0.3 -0.12 -0.3 -0.3 l0 -1.21 c0 -0.18 0.12 -0.3 0.3 -0.3 l2.48 0 l0 -2.6 c0 -0.18 0.12 -0.3 0.3 -0.3 l1.56 0 c0.18 0 0.3 0.12 0.3 0.3 l0 2.6 l3.95 0 c0.18 0 0.3 0.12 0.3 0.3 l0 1.21 c0 0.18 -0.12 0.3 -0.3 0.3 l-3.95 0 l0 3.95 c0 1.87 1.08 2.26 2.19 2.26 c0.83 0 1.43 -0.36 1.82 -0.67 c0.14 -0.13 0.3 -0.12 0.42 0.02 z M161.04449999999997 9.98 c2.09 0 3.54 1.42 3.54 4.04 l0 5.68 c0 0.18 -0.12 0.3 -0.3 0.3 l-1.56 0 c-0.18 0 -0.3 -0.12 -0.3 -0.3 l0 -5.36 c0 -1.67 -0.86 -2.37 -2.17 -2.37 c-1.67 0 -2.5 1.26 -2.68 1.87 l0 5.86 c0 0.18 -0.12 0.3 -0.3 0.3 l-1.56 0 c-0.18 0 -0.3 -0.12 -0.3 -0.3 l0 -13.4 c0 -0.18 0.12 -0.3 0.3 -0.3 l1.56 0 c0.18 0 0.3 0.12 0.3 0.3 l0 5.52 l0.16 0 c0.59 -0.94 1.66 -1.84 3.31 -1.84 z M182.658 9.98 c2.96 0 4.74 2.27 4.74 4.89 c0 0.74 -0.09 1.11 -0.65 1.11 l-6.99 0 c0.23 1.52 1.5 2.5 3.31 2.5 c1.05 0 1.78 -0.32 2.45 -0.83 c0.16 -0.12 0.28 -0.15 0.43 0 l0.66 0.66 c0.15 0.15 0.16 0.29 0 0.45 c-0.95 0.95 -2.19 1.5 -3.76 1.5 c-3.12 0 -5.19 -2.26 -5.19 -5.14 s2.07 -5.14 5 -5.14 z M182.66799999999998 11.83 c-1.53 0 -2.67 1 -2.89 2.59 l5.72 0 c-0.16 -1.57 -1.27 -2.59 -2.83 -2.59 z M223.825 9.99 c2.84 0 4.49 2.23 4.49 5.13 s-1.69 5.13 -4.49 5.13 c-1.45 0 -2.52 -0.61 -3.24 -1.5 l-0.08 0.95 c-0.02 0.18 -0.12 0.3 -0.3 0.3 l-1.41 0 c-0.18 0 -0.3 -0.12 -0.3 -0.3 l0 -13.4 c0 -0.18 0.12 -0.3 0.3 -0.3 l1.56 0 c0.18 0 0.3 0.12 0.3 0.3 l0 5.34 l0.2 0 c0.54 -0.91 1.47 -1.65 2.97 -1.65 z M223.39499999999998 18.27 c1.87 0 2.83 -1.29 2.83 -3.17 s-0.96 -3.13 -2.83 -3.13 c-1.7 0 -2.76 1.25 -2.76 3.13 s1.06 3.17 2.76 3.17 z M246.03849999999997 9.98 c2.96 0 4.74 2.27 4.74 4.89 c0 0.74 -0.09 1.11 -0.65 1.11 l-6.99 0 c0.23 1.52 1.5 2.5 3.31 2.5 c1.05 0 1.78 -0.32 2.45 -0.83 c0.16 -0.12 0.28 -0.15 0.43 0 l0.66 0.66 c0.15 0.15 0.16 0.29 0 0.45 c-0.95 0.95 -2.19 1.5 -3.76 1.5 c-3.12 0 -5.19 -2.26 -5.19 -5.14 s2.07 -5.14 5 -5.14 z M246.04849999999996 11.83 c-1.53 0 -2.67 1 -2.89 2.59 l5.72 0 c-0.16 -1.57 -1.27 -2.59 -2.83 -2.59 z M267.93199999999996 14.3 c2.11 0.27 4.56 0.53 4.56 2.94 c0 1.79 -1.48 3.02 -4.51 3.02 c-2.62 0 -4.39 -0.77 -4.62 -3.1 c-0.02 -0.2 0.11 -0.3 0.29 -0.3 l1.49 0 c0.18 0 0.27 0.08 0.29 0.22 c0.15 1.01 1.09 1.38 2.51 1.38 c1.54 0 2.43 -0.4 2.43 -1.26 c0 -0.91 -1.04 -1.13 -2.44 -1.3 c-2.08 -0.27 -4.38 -0.55 -4.38 -2.92 c0 -1.77 1.38 -3 4.23 -3 c2.48 0 4.27 0.76 4.5 3.09 c0.02 0.2 -0.11 0.3 -0.29 0.3 l-1.49 0 c-0.18 0 -0.27 -0.08 -0.29 -0.22 c-0.15 -1.01 -1.11 -1.38 -2.4 -1.38 c-1.33 0 -2.15 0.38 -2.15 1.25 s0.88 1.1 2.27 1.28 z M294.85549999999995 18.35 c0.11 0.13 0.13 0.28 0.02 0.41 c-0.42 0.52 -1.51 1.4 -3.3 1.4 c-2.05 0 -3.98 -0.76 -3.98 -3.97 l0 -4.18 l-2.48 0 c-0.18 0 -0.3 -0.12 -0.3 -0.3 l0 -1.21 c0 -0.18 0.12 -0.3 0.3 -0.3 l2.48 0 l0 -2.6 c0 -0.18 0.12 -0.3 0.3 -0.3 l1.56 0 c0.18 0 0.3 0.12 0.3 0.3 l0 2.6 l3.95 0 c0.18 0 0.3 0.12 0.3 0.3 l0 1.21 c0 0.18 -0.12 0.3 -0.3 0.3 l-3.95 0 l0 3.95 c0 1.87 1.08 2.26 2.19 2.26 c0.83 0 1.43 -0.36 1.82 -0.67 c0.14 -0.13 0.3 -0.12 0.42 0.02 z"/>
  </g>
</svg>